<svg id="clouds-an" class="light" xmlns="http://www.w3.org/2000/svg" viewBox="0 0 8000 1711.71">
    <style>
      @keyframes clouds-lr {
        from {
          transform: translateX(-500px);
        }
        to {
          transform: translateX(500px);
        }
      }

      @keyframes clouds-ud {
        from {
          transform: translateY(0px);
        }
        to {
          transform: translateY(50px);
        }
      }

      #clouds-an #cloud-1-out {
        animation: clouds-lr 30s cubic-bezier(.1,0,.9,1) both infinite alternate;
      }

      #clouds-an #cloud-2-out {
        animation: clouds-lr 25s -15s cubic-bezier(.1,0,.9,1) both infinite alternate;
      }

      #clouds-an #cloud-3-out {
        animation: clouds-lr 20s -20s cubic-bezier(.1,0,.9,1) both infinite alternate;
      }


      #clouds-an #cloud-1 {
        fill: #2d3154;
        animation: clouds-ud 5s -3s cubic-bezier(.1,0,.9,1) both infinite alternate;
      }

      #clouds-an #cloud-2 {
        fill: #424972;
        animation: clouds-ud 5s -9s cubic-bezier(.1,0,.9,1) both infinite alternate;
      }

      #clouds-an #cloud-3 {
        fill: #646e98;
        animation: clouds-ud 5s -6s cubic-bezier(.1,0,.9,1) both infinite alternate;
      }

      /*  you can remove the class "light" from the svg to switch back to dark mode  */

      #clouds-an.light #cloud-1 {
        fill: #c3d4de;
      }

      #clouds-an.light #cloud-2 {
        fill: #dfe8ed;
      }

      #clouds-an.light #cloud-3 {
        fill: #ffffff;
      }

      /*  you can remove the class "light" from the svg to switch back to dark mode  */
    </style>
    <g id="clouds-group">
      <g id="cloud-1-out">
        <path id="cloud-1" d="M9000,494.75v1217H-1000V459.48a257.22,257.22,0,0,1,123.18,63.43A569.19,569.19,0,0,1-531.18,406.63a575,575,0,0,1,108.62,10.3A504.42,504.42,0,0,1,0,5.39,507.78,507.78,0,0,1,73.94,0C292.58,0,478.69,139.22,548.48,333.84a464.3,464.3,0,0,1,93-9.37c176.12,0,329.24,98.45,407.36,243.31a677,677,0,0,1,650.49,10.84c40-98.84,136.8-168.58,250-168.58a268.48,268.48,0,0,1,179,68c84.67-94.27,207.5-153.57,344.19-153.57a463,463,0,0,1,111.63,13.58c104.8-115,255.8-187.2,423.66-187.2,227,0,423.16,132,515.93,323.42A269.73,269.73,0,0,1,3809,594.88c115-209,337.32-350.68,592.74-350.68s477.95,141.78,592.89,351a719.14,719.14,0,0,1,725,29.54c41.19-89,129.51-151.76,232.95-156.2,75.8-174.42,249.62-296.4,451.93-296.4,203.1,0,377.49,122.94,452.81,298.46a258.26,258.26,0,0,1,265.83,52.35,569.19,569.19,0,0,1,345.64-116.28,575,575,0,0,1,108.62,10.3A503.55,503.55,0,0,1,8073.94,0c218.64,0,404.75,139.22,474.54,333.84a464.3,464.3,0,0,1,93-9.37C8786.09,324.47,8915.18,390.83,9000,494.75Z"/>
      </g>
      <g id="cloud-2-out">
        <path id="cloud-2" d="M9000,667.88V1711.71H-1000V882a326.4,326.4,0,0,1,168.14,93.55c64.42-190.13,244.35-327,456.25-327A479.79,479.79,0,0,1-177.4,691.13,460.69,460.69,0,0,1,0,478.87v0a456.79,456.79,0,0,1,247.25-72.22c209,0,385.35,139.69,440.83,330.79A485.28,485.28,0,0,1,1166.77,719c79.75-92.54,197.81-151.12,329.56-151.12a438.29,438.29,0,0,1,62.08,4.4c90.23-170.72,269.6-287.06,476.14-287.06,266.85,0,488.35,194.21,530.85,449a401.89,401.89,0,0,1,48.22-2.9c153.37,0,286.52,86.55,353.28,213.47A328.49,328.49,0,0,1,3177,949.48c80.54-153.44,241.4-258.1,426.72-258.1,150.16,0,284.26,68.72,372.59,176.43a435.74,435.74,0,0,1,375.15-90.06c78.08-193.19,267.41-329.51,488.59-329.51,205,0,382.62,117.09,469.69,288a329.51,329.51,0,0,1,57.1-5,326,326,0,0,1,128.6,26.28A493.73,493.73,0,0,1,5889.67,698c103.53-124.74,259.75-204.19,434.52-204.19,250.49,0,462.85,163.18,536.62,389a327.25,327.25,0,0,1,307.33,92.72c64.42-190.13,244.35-327,456.25-327a479.79,479.79,0,0,1,198.21,42.56A460.69,460.69,0,0,1,8000,478.87v0a456.79,456.79,0,0,1,247.25-72.22c209,0,385.35,139.69,440.83,330.79a482.39,482.39,0,0,1,255.56-72.78A490.12,490.12,0,0,1,9000,667.88Z"/>
      </g>
      <g id="cloud-3-out">
        <path id="cloud-3" d="M9000,755.26v956.45H-1000V1130.76a268.08,268.08,0,0,1,141.77-40.28A268.45,268.45,0,0,1-681,1156.92C-595.31,890.32-345.28,697.4-50.18,697.4q25.32,0,50.18,1.87H0C263,719,483.11,892.13,571.19,1129.46a269.87,269.87,0,0,1,241.62-19c8.78-247.71,212.35-445.82,462.2-445.82,196.67,0,364.66,122.76,431.55,295.82a463.79,463.79,0,0,1,112.35-13.75c176.12,0,329.25,98.45,407.36,243.32a677.05,677.05,0,0,1,650.49,10.83c39.95-98.84,136.8-168.58,249.95-168.58a268.49,268.49,0,0,1,178.95,68c84.67-94.27,207.5-153.58,344.19-153.58a463.79,463.79,0,0,1,112.35,13.75c66.89-173.06,234.88-295.82,431.55-295.82,249.85,0,453.42,198.11,462.2,445.82a269.67,269.67,0,0,1,330.49,106.67c115-209,337.31-350.68,592.73-350.68s477.95,141.78,592.89,351a719.17,719.17,0,0,1,725,29.53c42.75-92.37,136.23-156.46,244.7-156.46A268.45,268.45,0,0,1,7319,1156.92c85.74-266.6,335.77-459.52,630.87-459.52q25.32,0,50.18,1.87h0c263,19.69,483.11,192.85,571.19,430.18a269.87,269.87,0,0,1,241.62-19C8818,964.87,8890.42,836.42,9000,755.26Z"/>
      </g>
    </g>
  </svg>